<?xml version="1.0" ?><svg xmlns:dc="http://purl.org/dc/elements/1.1/" xmlns:cc="http://creativecommons.org/ns#" xmlns:rdf="http://www.w3.org/1999/02/22-rdf-syntax-ns#" xmlns:svg="http://www.w3.org/2000/svg" xmlns="http://www.w3.org/2000/svg" xmlns:sodipodi="http://sodipodi.sourceforge.net/DTD/sodipodi-0.dtd" xmlns:inkscape="http://www.inkscape.org/namespaces/inkscape" width="2500" height="2500" viewBox="0 0 661.45832 661.45835" version="1.1" id="svg1107"><defs id="defs1101"/><g id="layer1" style="display:inline"><path style="display:inline;fill:#e5e5e5;fill-opacity:1;stroke:#e5e5e5;stroke-width:0.264583px;stroke-linecap:butt;stroke-linejoin:miter;stroke-opacity:1" d="m 208.6984,361.45415 -21.167,1.6064 6.26,109.111 60.075,19.9679 52.35,-3.5908 61.232,-8.8824 -41.955,-27.9703 z" id="path3237-2-2-9"/><path style="display:inline;fill:#ffffff;fill-opacity:1;stroke:#d9d9d9;stroke-width:1.32292;stroke-linecap:round;stroke-linejoin:round;stroke-miterlimit:4;stroke-dasharray:none;stroke-opacity:1" d="m 428.8774,405.66655 c -5.113,4.9341 -27.846,7.4515 -39.422,0.4009 l -4.298,-53.3962 c 5.092,-3.0375 38.563,-4.1513 45.91,0.4385 z" id="path2483-1-5"/><path style="display:inline;fill:#ffffff;fill-opacity:1;stroke:#ffffff;stroke-width:1.32292;stroke-linecap:round;stroke-linejoin:round;stroke-miterlimit:4;stroke-dasharray:none;stroke-opacity:1" d="m 331.7614,415.56685 c 5.046,10.2376 15.024,18.5577 32.884,23.8125 16.09,6.6237 29.425,20.4522 36.285,51.2157 3.332,12.1784 -2.242,17.0227 -10.961,19.2768 -7.912,4.6207 -14.636,1.3141 -20.411,-8.3155 -8.606,-32.4227 -41.705,-33.5003 -52.16,-33.4508 -18.3,4.453 -23.602,6.6211 -6.993,24.5684 4.384,6.4294 9.247,12.0919 10.206,24.0015 3.634,15.4163 -5.507,14.0207 -12.285,16.442 -15.761,6.5956 -17.953,-2.7721 -22.111,-9.8274 -13.451,-28.1866 -30.814,-28.9838 -46.869,-38.9316 -19.115,-4.5711 -25.918,-20.0056 -33.262,-34.9627 -19.913,-67.9092 -0.967,-103.3394 26.401,-131.7304 29.642,25.5823 64.563,37.3792 107.024,29.4878 11.111,16.031 28.97,20.5892 47.058,24.7574 12.961,40.1525 -43.925,10.4385 -57.263,2.2679 l -4.725,20.2217" id="path1117-7-4"/><circle style="display:inline;mix-blend-mode:normal;fill:#ffffff;fill-opacity:1;stroke:none;stroke-width:6.61458;stroke-linecap:square;stroke-linejoin:miter;stroke-miterlimit:4;stroke-dasharray:none;stroke-dashoffset:0;stroke-opacity:1;paint-order:markers fill stroke" id="circle1063-5-3-1" cx="315.44177" cy="230.70389" r="118.8485"/><path style="display:inline;fill:#d9d9d9;fill-opacity:1;stroke:none;stroke-width:0.264583px;stroke-linecap:butt;stroke-linejoin:miter;stroke-opacity:1" d="m 379.7654,373.46855 7.792,1.8476 -0.332,15.2483 c -1.805,-0.1406 -5.418,-0.6228 -7.283,-0.8253 0.857,-7.0098 0.396,-11.3597 -0.177,-16.2706 z" id="path3223-3-8"/><path style="color:#000000;font-style:normal;font-variant:normal;font-weight:normal;font-stretch:normal;font-size:medium;line-height:normal;font-family:sans-serif;font-variant-ligatures:normal;font-variant-position:normal;font-variant-caps:normal;font-variant-numeric:normal;font-variant-alternates:normal;font-variant-east-asian:normal;font-feature-settings:normal;font-variation-settings:normal;text-indent:0;text-align:start;text-decoration:none;text-decoration-line:none;text-decoration-style:solid;text-decoration-color:#000000;letter-spacing:normal;word-spacing:normal;text-transform:none;writing-mode:lr-tb;direction:ltr;text-orientation:mixed;dominant-baseline:auto;baseline-shift:baseline;text-anchor:start;white-space:normal;shape-padding:0;shape-margin:0;inline-size:0;clip-rule:nonzero;display:inline;overflow:visible;visibility:visible;isolation:auto;mix-blend-mode:normal;color-interpolation:sRGB;color-interpolation-filters:linearRGB;solid-color:#000000;solid-opacity:1;vector-effect:none;fill:#000000;fill-opacity:1;fill-rule:nonzero;stroke:none;stroke-linecap:round;stroke-linejoin:round;stroke-miterlimit:4;stroke-dasharray:none;stroke-dashoffset:0;stroke-opacity:1;color-rendering:auto;image-rendering:auto;shape-rendering:auto;text-rendering:auto;enable-background:accumulate;stop-color:#000000" d="m 339.7064,346.44265 c -0.663,0.012 -1.298,0.2729 -1.778,0.7305 -1.057,1.0081 -1.097,2.6825 -0.09,3.7402 4.804,5.039 10.031,9.0625 15.605,12.3438 5.574,3.2813 11.49,5.8228 17.701,7.9375 3.106,1.0573 6.286,2.0094 9.535,2.8926 0.813,0.2207 1.628,0.4374 2.45,0.6503 v 0 c 0.821,0.213 1.644,0.4207 2.474,0.627 v 0 c 0.415,0.1031 0.829,0.2069 1.246,0.3086 1.42,0.3474 0.68,-0.8064 1.026,-2.2269 -0.192,-1.1512 0.531,-2.1275 -0.06,-2.8901 -0.41,-0.1 -0.534,-0.2252 -0.941,-0.3264 -0.814,-0.2023 -1.622,-0.4071 -2.424,-0.6152 -0.803,-0.2082 -1.602,-0.4197 -2.393,-0.6348 -3.165,-0.8601 -6.236,-1.7789 -9.215,-2.7929 -5.956,-2.0282 -11.532,-4.4337 -16.724,-7.4903 -5.192,-3.0566 -10.005,-6.762 -14.459,-11.4336 -0.511,-0.536 -1.223,-0.8335 -1.963,-0.8203 z m -8.666,26.0352 c -0.903,0.017 -1.734,0.4939 -2.205,1.2636 -0.764,1.2464 -0.372,2.8757 0.875,3.6387 12.946,7.9252 25.283,12.4462 37.191,15.0332 5.954,1.2936 11.8,2.106 17.565,2.6309 0.72,0.066 1.438,0.1266 2.156,0.1836 0.718,0.057 1.436,0.1091 2.152,0.1582 1.457,0.1 0.759,-1.0473 0.86,-2.5043 0.101,-1.4586 0.96,-2.6752 -0.499,-2.775 -0.697,-0.048 -1.395,-0.099 -2.093,-0.1543 -0.699,-0.055 -1.399,-0.1141 -2.098,-0.1777 -5.595,-0.5095 -11.219,-1.2947 -16.92,-2.5333 -11.402,-2.4771 -23.115,-6.7621 -35.551,-14.375 -0.431,-0.2638 -0.928,-0.3986 -1.433,-0.3886 z" id="path3221-8-8"/><path style="display:inline;fill:none;fill-opacity:1;stroke:#000000;stroke-width:5.29167;stroke-linecap:round;stroke-linejoin:round;stroke-miterlimit:4;stroke-dasharray:none;stroke-opacity:1" d="m 203.3584,361.58265 c -0.237,0.016 -0.474,0.032 -0.711,0.048 -0.475,0.032 -0.951,0.064 -1.426,0.097 -7.596,0.5166 -14.934,1.0335 -14.934,1.0335 l 6.201,112.4479 m 115.284,13.3144 0.846,-0.1138 0.846,-0.1139 0.847,-0.1138 13.539,-1.8211 13.539,-1.8211 13.54,-1.8211 3.384,-0.4552 3.385,-0.4553" id="path3243-52-4"/><path style="display:inline;fill:none;stroke:#000000;stroke-width:6.61458;stroke-linecap:round;stroke-linejoin:round;stroke-miterlimit:4;stroke-dasharray:none;stroke-opacity:1" d="m 359.4064,559.80295 -0.585,-49.9877 -0.292,-24.9939 -0.01,-0.3905 -0.01,-0.3905 v -0.3906 m -124.141,0.8062 -0.01,0.9136 -0.01,0.9134 -0.04,3.6542 -0.04,3.654 -0.04,3.654 -0.146,14.6164 -0.147,14.6164" id="path3245-7-5"/><path style="display:inline;fill:none;stroke:#000000;stroke-width:6.61458;stroke-linecap:round;stroke-linejoin:round;stroke-miterlimit:4;stroke-dasharray:none;stroke-opacity:1" d="m 173.6944,556.74965 19.293,-83.6052 m 63.143,21.0474 1.961,86.1385" id="path3247-7-8"/><path style="display:inline;fill:none;stroke:#000000;stroke-width:5.29167;stroke-linecap:round;stroke-linejoin:round;stroke-miterlimit:4;stroke-dasharray:none;stroke-opacity:1" d="m 193.5174,472.08605 63.143,21.0474" id="path3249-0-2"/><path style="display:inline;fill:none;fill-opacity:1;stroke:#000000;stroke-width:5.29167;stroke-linecap:round;stroke-linejoin:round;stroke-miterlimit:4;stroke-dasharray:none;stroke-opacity:1" d="m 329.7574,373.81875 c -1.754,4.4617 -3.406,9.8012 -3.826,14.1562 -0.182,2.1995 -0.284,4.0205 -0.233,6.0173 0.245,9.4458 2.589,16.8497 5.741,22.4444 1.511,2.683 3.176,5.1128 5.09,7.3023 2.1,2.3952 4.509,4.556 7.233,6.4181 2.723,1.862 5.76,3.4255 9.115,4.6263 32.775,11.73 39.757,27.361 46.307,50.329 5.044,17.682 2.568,22.122 -10.401,25.568 -15.67,4.164 -17.933,-6.02 -20.331,-12.599 -16.224,-44.501 -81.068,-30.629 -66.027,-14.766 6.11,6.726 13.034,13.7419 14.988,20.0669 8.709,28.1901 0.495,27.348 -13.471,30.9181 -16.081,4.112 -14.159,-10.1391 -23.074,-21.9221 -8.915,-11.7828 -25.028,-21.474 -41.684,-27.6234 -21.013,-7.7577 -29.85,-23.3595 -34.801,-42.1915 -16.884,-64.2171 1.614,-97.232 26.989,-123.263" id="path3251-4-6"/><path style="color:#000000;font-style:normal;font-variant:normal;font-weight:normal;font-stretch:normal;font-size:medium;line-height:normal;font-family:sans-serif;font-variant-ligatures:normal;font-variant-position:normal;font-variant-caps:normal;font-variant-numeric:normal;font-variant-alternates:normal;font-variant-east-asian:normal;font-feature-settings:normal;font-variation-settings:normal;text-indent:0;text-align:start;text-decoration:none;text-decoration-line:none;text-decoration-style:solid;text-decoration-color:#000000;letter-spacing:normal;word-spacing:normal;text-transform:none;writing-mode:lr-tb;direction:ltr;text-orientation:mixed;dominant-baseline:auto;baseline-shift:baseline;text-anchor:start;white-space:normal;shape-padding:0;shape-margin:0;inline-size:0;clip-rule:nonzero;display:inline;overflow:visible;visibility:visible;opacity:0.998;isolation:auto;mix-blend-mode:normal;color-interpolation:sRGB;color-interpolation-filters:linearRGB;solid-color:#000000;solid-opacity:1;vector-effect:none;fill:#000000;fill-opacity:1;fill-rule:nonzero;stroke:none;stroke-linecap:round;stroke-linejoin:round;stroke-miterlimit:4;stroke-dasharray:none;stroke-dashoffset:0;stroke-opacity:1;color-rendering:auto;image-rendering:auto;shape-rendering:auto;text-rendering:auto;enable-background:accumulate;stop-color:#000000" d="m 384.9984,351.97135 c -0.05,-10e-5 -0.109,0 -0.162,0.01 -0.873,0.082 -1.514,0.856 -1.432,1.7285 l 4.976,52.6739 c 0.04,0.4419 0.266,0.8464 0.62,1.1152 4.698,3.5751 13.032,4.6026 21.166,4.3672 4.066,-0.1177 8.067,-0.5993 11.5,-1.4082 3.432,-0.8089 6.295,-1.8834 8.199,-3.541 0.327,-0.2851 0.523,-0.6916 0.543,-1.125 l 0.144,-3.25 0.145,-3.25 0.146,-3.2481 0.07,-1.625 c 0.04,-0.8759 -0.639,-1.6174 -1.515,-1.6562 -0.876,-0.039 -1.618,0.6397 -1.657,1.5156 l -0.07,1.623 -0.146,3.25 -0.145,3.25 -0.107,2.4102 c -1.275,0.9223 -3.469,1.8811 -6.336,2.5566 -3.167,0.7465 -6.988,1.2121 -10.863,1.3243 -7.436,0.2152 -15.026,-1.0783 -18.613,-3.4454 l -4.897,-51.8339 c -0.08,-0.8105 -0.752,-1.4322 -1.566,-1.4395 z m 46.105,0.1719 c -0.209,0.01 -0.408,0.05 -0.59,0.1275 -0.181,0.078 -0.346,0.1887 -0.485,0.325 -0.139,0.1363 -0.385,0.2868 -0.335,0.4782 0.05,0.2092 0.66,0.5486 -0.141,0.5869 l -0.578,12.9961 -0.144,3.25 -0.147,3.248 c -0.04,0.8759 0.64,1.6174 1.516,1.6563 0.875,0.039 1.616,-0.6386 1.656,-1.5137 l 0.145,-3.25 0.146,-3.25 0.578,-12.9961 c 0.04,-0.8759 -0.64,-1.6174 -1.515,-1.6563 -0.04,0 -0.07,0 -0.106,0 z" id="path918-4-1-1-5"/><path style="display:inline;opacity:0.998;fill:#ffffff;fill-opacity:1;stroke:#000000;stroke-width:3.96875;stroke-linecap:round;stroke-linejoin:round;stroke-miterlimit:4;stroke-dasharray:none;stroke-opacity:1" d="m 429.2094,394.35205 c -5.908,-2.1537 -5.052,-19.2692 1.018,-20.5299 6.068,-1.2606 4.889,22.6835 -1.018,20.5299 z" id="path924-3-0-0-7"/><path style="display:inline;opacity:0.998;fill:none;fill-opacity:1;stroke:#000000;stroke-width:2.64583;stroke-linecap:round;stroke-linejoin:bevel;stroke-miterlimit:4;stroke-dasharray:none;stroke-opacity:1" d="m 384.7354,353.52785 c 0.702,4.7114 48.172,4.3832 46.645,-0.2694 -1.516,-4.6169 -47.24,-3.727 -46.645,0.2694 z" id="path7293-4-0-8"/><ellipse style="display:inline;fill:#000000;fill-opacity:1;stroke:none;stroke-width:5.29166;stroke-linecap:square;stroke-opacity:1;paint-order:markers fill stroke" id="ellipse942-3-2-9" cx="288.24646" cy="220.06522" rx="4.911078" ry="4.6772165"/><ellipse style="display:inline;fill:#000000;fill-opacity:1;stroke:none;stroke-width:5.29166;stroke-linecap:square;stroke-opacity:1;paint-order:markers fill stroke" id="ellipse944-7-6-8" cx="384.15662" cy="220.06912" rx="4.911078" ry="4.6772165"/><path style="display:inline;fill:#d9d9d9;fill-opacity:1;stroke:none;stroke-width:0.265;stroke-linecap:butt;stroke-linejoin:miter;stroke-miterlimit:4;stroke-dasharray:none;stroke-opacity:1" d="m 351.1224,119.75575 c -9.054,-3.0924 -15.577,-4.9075 -24.411,-5.7268 -8.834,-0.8193 -20.01,-0.2038 -28.372,1.0548 -16.726,2.5173 -33.312,9.2009 -46.615,17.7058 -13.215,8.4499 -25.002,19.3158 -33.674,31.9626 -4.336,6.3234 -7.529,13.6659 -10.535,20.6413 -3.006,6.9752 -5.412,14.1435 -6.989,21.5222 -3.21,15.0092 -3.398,30.434 -0.621,45.3439 2.781,14.9285 9.407,30.2301 17.731,43.1052 8.329,12.8804 19.254,23.6963 32.358,32.5739 13.139,8.9008 29.006,14.8371 46.389,17.6873 -73.084,-28.57 -89.802,-90.8967 -75.525,-142.9611 14.473,-52.7792 68.053,-94.3677 130.264,-82.9091 z" id="path1069-4-1-9"/><circle style="display:inline;mix-blend-mode:normal;fill:none;fill-opacity:1;stroke:#000000;stroke-width:6.61458;stroke-linecap:square;stroke-linejoin:miter;stroke-miterlimit:4;stroke-dasharray:none;stroke-dashoffset:0;stroke-opacity:1;paint-order:markers fill stroke" id="circle948-3-6-8" cx="315.01599" cy="230.97049" r="118.8485"/><path style="display:inline;fill:none;fill-opacity:1;stroke:#000000;stroke-width:5.29167;stroke-linecap:round;stroke-linejoin:round;stroke-miterlimit:4;stroke-dasharray:none;stroke-opacity:1" d="m 224.0624,361.19535 c -1.617,7.868 -2.437,14.909 -2.59,21.229 -0.153,6.32 0.362,11.919 1.414,16.903 1.053,4.983 2.643,9.352 4.642,13.212 1.999,3.86 4.407,7.211 7.094,10.16 2.686,2.948 5.652,5.494 8.767,7.743 3.116,2.25 6.381,4.203 9.666,5.965 3.285,1.763 6.59,3.335 9.786,4.824 22.813,10.623 31.751,2.507 11.924,-12.979 -13.614,-10.634 -27.971,-27.535 -29.519,-40.401" id="path912-25-4"/><ellipse style="display:inline;fill:none;fill-opacity:1;stroke:#000000;stroke-width:5.29167;stroke-linecap:round;stroke-linejoin:round;stroke-miterlimit:4;stroke-dasharray:none;stroke-opacity:1" id="ellipse2358-1" cx="-420.20926" cy="-521.28223" rx="52.916664" ry="72.967125" transform="matrix(0.07373721,-0.99727771,-0.99727771,-0.07373721,0,0)"/><path style="display:inline;fill:none;stroke:#000000;stroke-width:1.32292;stroke-linecap:butt;stroke-linejoin:miter;stroke-miterlimit:4;stroke-dasharray:none;stroke-opacity:1" d="m 489.3964,508.28755 8.981,-102.8747" id="path2360-6"/><path style="display:inline;fill:none;stroke:#000000;stroke-width:1.32292;stroke-linecap:butt;stroke-linejoin:miter;stroke-miterlimit:4;stroke-dasharray:none;stroke-opacity:1" d="m 560.7154,457.09635 -143.966,-12.8936" id="path2362-9"/><path style="display:inline;fill:none;stroke:#000000;stroke-width:1.32292;stroke-linecap:butt;stroke-linejoin:miter;stroke-miterlimit:4;stroke-dasharray:none;stroke-opacity:1" d="m 476.3114,506.61135 8.982,-102.8748" id="path2364-2"/><path style="display:inline;fill:none;stroke:#000000;stroke-width:1.32292;stroke-linecap:butt;stroke-linejoin:miter;stroke-miterlimit:4;stroke-dasharray:none;stroke-opacity:1" d="m 518.1674,504.88835 8.039,-92.3343" id="path2366-3"/><path style="display:inline;fill:none;stroke:#000000;stroke-width:1.32292;stroke-linecap:butt;stroke-linejoin:miter;stroke-miterlimit:4;stroke-dasharray:none;stroke-opacity:1" d="m 503.5584,510.72745 8.982,-102.8747" id="path2368-4"/><path style="display:inline;fill:none;stroke:#000000;stroke-width:1.32292;stroke-linecap:butt;stroke-linejoin:miter;stroke-miterlimit:4;stroke-dasharray:none;stroke-opacity:1" d="m 547.5964,487.58305 4.931,-57.5465" id="path2370-7"/><path style="display:inline;fill:none;stroke:#000000;stroke-width:1.32292;stroke-linecap:butt;stroke-linejoin:miter;stroke-miterlimit:4;stroke-dasharray:none;stroke-opacity:1" d="m 532.1384,502.90885 7.193,-82.8463" id="path2373-2"/><path style="display:inline;fill:none;stroke:#000000;stroke-width:1.32292;stroke-linecap:butt;stroke-linejoin:miter;stroke-miterlimit:4;stroke-dasharray:none;stroke-opacity:1" d="m 451.1524,501.45295 8.458,-92.2964" id="path2375-4"/><path style="display:inline;fill:none;stroke:#000000;stroke-width:1.32292;stroke-linecap:butt;stroke-linejoin:miter;stroke-miterlimit:4;stroke-dasharray:none;stroke-opacity:1" d="m 426.0804,478.77905 5.348,-57.5093" id="path2377-20"/><path style="display:inline;fill:none;stroke:#000000;stroke-width:1.32292;stroke-linecap:butt;stroke-linejoin:miter;stroke-miterlimit:4;stroke-dasharray:none;stroke-opacity:1" d="m 438.8564,493.44135 7.609,-82.8099" id="path2379-2"/><path style="display:inline;fill:none;stroke:#000000;stroke-width:1.32292;stroke-linecap:butt;stroke-linejoin:miter;stroke-miterlimit:4;stroke-dasharray:none;stroke-opacity:1" d="m 463.8504,505.71165 8.698,-99.713" id="path2381-5"/><path style="display:inline;fill:none;stroke:#000000;stroke-width:1.32292;stroke-linecap:butt;stroke-linejoin:miter;stroke-miterlimit:4;stroke-dasharray:none;stroke-opacity:1" d="m 559.2554,473.43045 -142.384,-12.7532" id="path2383-3"/><path style="display:inline;fill:none;stroke:#000000;stroke-width:1.32292;stroke-linecap:butt;stroke-linejoin:miter;stroke-miterlimit:4;stroke-dasharray:none;stroke-opacity:1" d="m 542.0244,422.49775 -98.638,-8.8438" id="path2386-8"/><path style="display:inline;fill:none;stroke:#000000;stroke-width:1.32292;stroke-linecap:butt;stroke-linejoin:miter;stroke-miterlimit:4;stroke-dasharray:none;stroke-opacity:1" d="m 559.0124,440.47985 -134.479,-12.046" id="path2388-11"/><path style="display:inline;fill:none;stroke:#000000;stroke-width:1.32292;stroke-linecap:butt;stroke-linejoin:miter;stroke-miterlimit:4;stroke-dasharray:none;stroke-opacity:1" d="m 527.8774,503.52465 -85.993,-7.653" id="path2390-9"/><path style="display:inline;fill:none;stroke:#000000;stroke-width:1.32292;stroke-linecap:butt;stroke-linejoin:miter;stroke-miterlimit:4;stroke-dasharray:none;stroke-opacity:1" d="m 548.3114,488.88605 -123.415,-10.9972" id="path2392-7"/><path style="display:inline;fill:none;stroke:#000000;stroke-width:5.29167;stroke-linecap:round;stroke-linejoin:round;stroke-miterlimit:4;stroke-dasharray:none;stroke-opacity:1" d="m 285.9444,440.22605 129.503,12.1572" id="path2394-5"/></g></svg>