<?xml version="1.0" ?><svg xmlns:dc="http://purl.org/dc/elements/1.1/" xmlns:cc="http://creativecommons.org/ns#" xmlns:rdf="http://www.w3.org/1999/02/22-rdf-syntax-ns#" xmlns:svg="http://www.w3.org/2000/svg" xmlns="http://www.w3.org/2000/svg" xmlns:sodipodi="http://sodipodi.sourceforge.net/DTD/sodipodi-0.dtd" xmlns:inkscape="http://www.inkscape.org/namespaces/inkscape" width="2500" height="2500" viewBox="0 0 661.45832 661.45835" version="1.1" id="svg1107"><defs id="defs1101"/><g id="layer1" style="display:inline"><path style="fill:#ffffff;fill-opacity:1;stroke:#ffffff;stroke-width:1.32292;stroke-linecap:round;stroke-linejoin:round;stroke-miterlimit:4;stroke-dasharray:none;stroke-opacity:1" d="m 333.28507,323.93064 c 26.06084,18.52911 56.53721,31.5868 105.57148,21.64884 -23.93266,51.3261 -40.97915,146.52765 -40.89226,222.6355 -0.35351,10.13212 -5.21633,14.34579 -13.63072,13.89801 -9.31592,1.15883 -13.1977,-5.58653 -17.10526,-12.2944 -5.95325,-16.91623 -17.2238,-18.36397 -28.59783,-19.51066 -14.66166,-1.58775 -27.11013,0.97424 -30.46873,20.57974 0.25915,7.65361 -5.3664,9.42252 -13.63075,8.55263 -8.46355,0.26729 -13.00711,-5.34541 -13.63075,-16.83798 3.75257,-57.43764 16.48012,-108.89196 29.07358,-160.43568 -21.68733,-0.47064 -43.73916,-1.33893 -70.87052,-7.74851 -29.71084,-9.52978 -22.4475,-19.88041 -0.18899,-18.33184 28.09894,3.72181 54.42585,4.15269 78.99701,1.32291 l 1.51191,-5.29166 c -28.77725,-12.27503 -47.61642,-26.72401 -60.28719,-42.52233 -8.89249,-19.64778 -3.11943,-21.33773 12.66219,-10.77232 15.90794,10.94505 32.16842,21.76418 54.99555,30.23809 z" id="path1004"/><path style="display:inline;fill:none;fill-opacity:1;stroke:#000000;stroke-width:5.29167;stroke-linecap:round;stroke-linejoin:round;stroke-miterlimit:4;stroke-dasharray:none;stroke-opacity:0.988235" d="m 371.44755,360.72425 c -38.0295,-3.0997 -74.1899,-23.1842 -100.373,-42.5387 -21.1497,-15.6338 -21.6693,2.0484 -5.0853,19.1296 24.5864,25.3235 68.7306,42.414 103.3249,47.5634" id="path6298-1"/><path style="display:inline;fill:none;fill-opacity:1;stroke:#000000;stroke-width:5.29167;stroke-linecap:round;stroke-linejoin:round;stroke-miterlimit:4;stroke-dasharray:none;stroke-opacity:1" d="m 317.40662,377.13858 c -0.50934,0.0948 -1.02103,0.18611 -1.53506,0.27415 -0.51403,0.088 -1.03041,0.17273 -1.54914,0.25417 -2.07489,0.32577 -4.1873,0.59939 -6.33716,0.82533 -2.14986,0.22593 -4.33716,0.40417 -6.56184,0.53918 -8.8987,0.54004 -18.39538,0.38832 -28.48537,-0.16988 -10.08999,-0.55819 -20.7733,-1.52288 -32.04525,-2.60879 -26.17923,-2.52206 -28.91462,9.90791 -6.16531,16.92705 10.1343,3.12686 20.6778,5.57438 31.39728,7.2153 10.71947,1.64092 21.61491,2.47529 32.4531,2.37569 2.70955,-0.0249 5.41552,-0.10815 8.11426,-0.25176 0.67469,-0.0359 1.34893,-0.0756 2.02265,-0.11905 0.33687,-0.0217 0.6736,-0.0444 1.0102,-0.0681" id="path3785-6"/><circle style="display:inline;fill:#ececec;fill-opacity:1;stroke:#000000;stroke-width:2.64583;stroke-linecap:round;stroke-linejoin:round;stroke-miterlimit:4;stroke-dasharray:none;stroke-opacity:1;paint-order:fill markers stroke" id="circle995-3-7-5" cx="-253.60788" cy="288.11853" r="21.643103" transform="scale(-1,1)"/><path style="display:inline;fill:none;stroke:#000000;stroke-width:2.646;stroke-linecap:round;stroke-linejoin:round;stroke-miterlimit:4;stroke-dasharray:none;stroke-opacity:1" d="m 239.80321,271.46973 c -11.738,13.638 -2.439,27.2067 14.676,21.6803 14.386,-4.6451 16.751,1.1919 17.602,6.0826" id="path997-0-6-1"/><ellipse style="display:inline;fill:none;fill-opacity:1;stroke:#000000;stroke-width:5.29167;stroke-linecap:round;stroke-linejoin:round;stroke-miterlimit:4;stroke-dasharray:none;stroke-opacity:1" id="ellipse2358-6-8-1" cx="11.505375" cy="262.84732" rx="52.916664" ry="72.967125" transform="rotate(-29.104455)"/><path style="display:inline;fill:none;stroke:#000000;stroke-width:1.32292;stroke-linecap:butt;stroke-linejoin:miter;stroke-miterlimit:4;stroke-dasharray:none;stroke-opacity:1" d="m 91.611675,244.95577 89.551805,-51.4231" id="path2360-6-2-1"/><path style="display:inline;fill:none;stroke:#000000;stroke-width:1.32292;stroke-linecap:butt;stroke-linejoin:miter;stroke-miterlimit:4;stroke-dasharray:none;stroke-opacity:1" d="m 108.05278,158.71987 72.2569,125.1847" id="path2362-2-4-9"/><path style="display:inline;fill:none;stroke:#000000;stroke-width:1.32292;stroke-linecap:butt;stroke-linejoin:miter;stroke-miterlimit:4;stroke-dasharray:none;stroke-opacity:1" d="m 98.636175,256.12117 89.551905,-51.4233" id="path2364-2-8-1"/><path style="display:inline;fill:none;stroke:#000000;stroke-width:1.32292;stroke-linecap:butt;stroke-linejoin:miter;stroke-miterlimit:4;stroke-dasharray:none;stroke-opacity:1" d="m 82.592765,217.42377 80.386015,-46.134" id="path2366-0-9-6"/><path style="display:inline;fill:none;stroke:#000000;stroke-width:1.32292;stroke-linecap:butt;stroke-linejoin:miter;stroke-miterlimit:4;stroke-dasharray:none;stroke-opacity:1" d="m 83.440665,233.13367 89.551915,-51.4232" id="path2368-8-9-5"/><path style="display:inline;fill:none;stroke:#000000;stroke-width:1.32292;stroke-linecap:butt;stroke-linejoin:miter;stroke-miterlimit:4;stroke-dasharray:none;stroke-opacity:1" d="m 85.913465,183.44637 50.132715,-28.6814" id="path2370-8-3-9"/><path style="display:inline;fill:none;stroke:#000000;stroke-width:1.32292;stroke-linecap:butt;stroke-linejoin:miter;stroke-miterlimit:4;stroke-dasharray:none;stroke-opacity:1" d="m 78.511369,203.91617 72.134311,-41.3749" id="path2373-6-3-6"/><path style="display:inline;fill:none;stroke:#000000;stroke-width:1.32292;stroke-linecap:butt;stroke-linejoin:miter;stroke-miterlimit:4;stroke-dasharray:none;stroke-opacity:1" d="m 113.89968,276.77607 80.1748,-46.4978" id="path2375-2-3-94"/><path style="display:inline;fill:none;stroke:#000000;stroke-width:1.32292;stroke-linecap:butt;stroke-linejoin:miter;stroke-miterlimit:4;stroke-dasharray:none;stroke-opacity:1" d="m 145.01588,289.98437 49.9239,-29.0437" id="path2377-1-9-3"/><path style="display:inline;fill:none;stroke:#000000;stroke-width:1.32292;stroke-linecap:butt;stroke-linejoin:miter;stroke-miterlimit:4;stroke-dasharray:none;stroke-opacity:1" d="m 126.33988,284.56087 71.9263,-41.7373" id="path2379-2-0-6"/><path style="display:inline;fill:none;stroke:#000000;stroke-width:1.32292;stroke-linecap:butt;stroke-linejoin:miter;stroke-miterlimit:4;stroke-dasharray:none;stroke-opacity:1" d="m 104.69508,267.04837 86.8024,-49.8362" id="path2381-9-8-2"/><path style="display:inline;fill:none;stroke:#000000;stroke-width:1.32292;stroke-linecap:butt;stroke-linejoin:miter;stroke-miterlimit:4;stroke-dasharray:none;stroke-opacity:1" d="m 93.847875,166.91467 71.464705,123.8102" id="path2383-0-6-5"/><path style="display:inline;fill:none;stroke:#000000;stroke-width:1.32292;stroke-linecap:butt;stroke-linejoin:miter;stroke-miterlimit:4;stroke-dasharray:none;stroke-opacity:1" d="m 147.30388,161.12247 49.5151,85.7659" id="path2386-5-3-5"/><path style="display:inline;fill:none;stroke:#000000;stroke-width:1.32292;stroke-linecap:butt;stroke-linejoin:miter;stroke-miterlimit:4;stroke-dasharray:none;stroke-opacity:1" d="m 123.84378,153.27487 67.4972,116.9345" id="path2388-1-7-5"/><path style="display:inline;fill:none;stroke:#000000;stroke-width:1.32292;stroke-linecap:butt;stroke-linejoin:miter;stroke-miterlimit:4;stroke-dasharray:none;stroke-opacity:1" d="m 79.745169,208.04107 43.116911,74.7959" id="path2390-3-4-0"/><path style="display:inline;fill:none;stroke:#000000;stroke-width:1.32292;stroke-linecap:butt;stroke-linejoin:miter;stroke-miterlimit:4;stroke-dasharray:none;stroke-opacity:1" d="m 84.429965,183.34537 61.891515,107.3386" id="path2392-6-1-2"/><path style="display:inline;fill:none;stroke:#000000;stroke-width:5.29167;stroke-linecap:round;stroke-linejoin:round;stroke-miterlimit:4;stroke-dasharray:none;stroke-opacity:1" d="m 238.94038,400.90087 -65.5038,-112.3736" id="path2394-6-2-0"/><circle style="display:inline;mix-blend-mode:normal;fill:#ffffff;fill-opacity:1;stroke:none;stroke-width:6.61458;stroke-linecap:square;stroke-linejoin:miter;stroke-miterlimit:4;stroke-dasharray:none;stroke-dashoffset:0;stroke-opacity:1;paint-order:markers fill stroke" id="circle2344-3-8-6-1" cx="-441.93262" cy="153.83839" r="118.8485" transform="matrix(-0.98362944,-0.18020301,-0.18020301,0.98362944,0,0)"/><ellipse style="display:inline;fill:#000000;fill-opacity:1;stroke:none;stroke-width:5.29166;stroke-linecap:square;stroke-opacity:1;paint-order:markers fill stroke" id="ellipse2396-8-2-0-0" cx="-468.2334" cy="142.85402" rx="4.911078" ry="4.6772165" transform="matrix(-0.98362944,-0.18020301,-0.18020301,0.98362944,0,0)"/><ellipse style="display:inline;fill:#000000;fill-opacity:1;stroke:none;stroke-width:5.29166;stroke-linecap:square;stroke-opacity:1;paint-order:markers fill stroke" id="ellipse2398-9-2-8-4" cx="-372.32709" cy="142.85793" rx="4.911078" ry="4.6772165" transform="matrix(-0.98362944,-0.18020301,-0.18020301,0.98362944,0,0)"/><path style="display:inline;fill:#d9d9d9;fill-opacity:1;stroke:none;stroke-width:0.265;stroke-linecap:butt;stroke-linejoin:miter;stroke-miterlimit:4;stroke-dasharray:none;stroke-opacity:1" d="m 391.31439,115.13956 c 9.4631,-1.4102 16.2064,-2.02 25.0434,-1.234 8.837,0.786 19.7192,3.4054 27.7175,6.1502 15.9985,5.4901 31.1086,15.0532 42.6613,25.8161 11.4759,10.6929 21.1119,23.505 27.3629,37.5075 3.1255,7.0013 4.9431,14.799 6.6429,22.2019 1.6999,7.4027 2.7747,14.8872 2.9963,22.4293 0.4527,15.3419 -2.142,30.548 -7.5604,44.7134 -5.4255,14.183 -14.7005,28.0401 -25.2083,39.2044 -10.5138,11.1686 -23.209,19.8387 -37.6982,26.2097 -14.5279,6.3873 -31.2049,9.3672 -48.817,9.0383 77.036,-14.9324 104.7118,-73.2261 100.0507,-127.0109 -4.7251,-54.5233 -49.9336,-105.0863 -113.1911,-105.0259 z" id="path2401-3-3-3-1"/><circle style="display:inline;mix-blend-mode:normal;fill:none;fill-opacity:1;stroke:#000000;stroke-width:6.61458;stroke-linecap:square;stroke-linejoin:miter;stroke-miterlimit:4;stroke-dasharray:none;stroke-dashoffset:0;stroke-opacity:1;paint-order:markers fill stroke" id="circle2403-6-0-11-0" cx="-441.46381" cy="153.75929" r="118.8485" transform="matrix(-0.98362944,-0.18020301,-0.18020301,0.98362944,0,0)"/><path style="display:inline;fill:none;fill-opacity:1;stroke:#000000;stroke-width:5.29167;stroke-linecap:round;stroke-linejoin:round;stroke-miterlimit:4;stroke-dasharray:none;stroke-opacity:1" d="m 319.48513,371.40686 c -0.0393,0.13187 -0.0786,0.26393 -0.11796,0.39617 -0.0394,0.13225 -0.0788,0.26468 -0.1182,0.39729 -0.0394,0.13261 -0.0789,0.26541 -0.11845,0.39839 -0.15809,0.53193 -0.31682,1.06677 -0.47616,1.60447 -0.31868,1.0754 -0.63978,2.16218 -0.96305,3.25972 -1.29309,4.39017 -2.62092,8.95246 -3.96701,13.64646 -5.38436,18.77602 -11.06098,39.65943 -15.976,60.06362 -4.91502,20.40418 -9.06845,40.32914 -11.40645,57.18827 -9.35202,67.43664 -6.246,71.8879 12.967,71.351 19.212,-0.5369 -0.987,-30.0905 37.856,-29.5079 40.146,0.6021 21.134,31.7866 46.719,32.1281 13.49,0.1801 13.356,-4.1949 14.286,-19.5792 5.28,-101.5556 23.59515,-179.20002 41.97315,-218.03072 M 334.09275,324.43485 c 0,0 -2.39993,7.28062 -6.14595,19.25524 -0.23413,0.74842 -0.47351,1.51517 -0.7179,2.29962 -0.24438,0.78445 -0.49377,1.58661 -0.7479,2.40585" id="path3787-4"/></g></svg>